<svg version="1.1" xmlns="http://www.w3.org/2000/svg" xmlns:xlink="http://www.w3.org/1999/xlink" width="124.21651" height="52.71926" viewBox="0,0,124.21651,52.71926"><g transform="translate(-897.89174,-513.64037)"><g data-paper-data="{&quot;isPaintingLayer&quot;:true}" stroke="none" stroke-width="1" stroke-linecap="square" stroke-linejoin="miter" stroke-miterlimit="10" stroke-dasharray="" stroke-dashoffset="0" style="mix-blend-mode: normal"><path d="M897.89174,513.64037h124.21651v52.71926h-124.21651z" fill="#ee220c" fill-rule="evenodd"/><path d="M938.37804,530.83997c1.69106,0 3.03515,0.4615 4.03226,1.38451c1.00386,0.91627 1.50578,2.27383 1.50578,4.07269c0,1.81233 -0.50193,3.17663 -1.50578,4.0929c-0.99712,0.90953 -2.28394,1.3643 -3.86046,1.3643h-5.93217v7.55923h-2.45574v-18.47362zM937.69083,539.68265c1.17229,0 2.09529,-0.27286 2.76902,-0.81858c0.67373,-0.55246 1.01059,-1.40809 1.01059,-2.5669c0,-1.13186 -0.3335,-1.97739 -1.00049,-2.53659c-0.66699,-0.56593 -1.6439,-0.8489 -2.93072,-0.8489h-4.92158v6.77097zM949.38086,530.83997v16.40191h9.77242v2.07171h-12.22816v-18.47362zM969.04445,530.83997l7.21564,18.47362h-2.71849l-2.01108,-5.55826h-7.81188l-2.07171,5.55826h-2.53659l7.21563,-18.47362zM967.61951,533.06327l-3.12273,8.62035h6.25557l-3.07221,-8.62035h-0.06064zM977.17972,530.83997l5.53804,8.79215l5.40667,-8.79215h2.78923l-7.06404,10.91439v7.55923h-2.46584v-7.55923l-7.13478,-10.91439z" fill="#ffffff" fill-rule="nonzero"/></g></g></svg>